<?xml version="1.0" encoding="UTF-8"?>
<!DOCTYPE svg PUBLIC "-//W3C//DTD SVG 1.1//EN" "http://www.w3.org/Graphics/SVG/1.1/DTD/svg11.dtd">
<!-- Creator: CorelDRAW 2018 (64 Bit Versão de avaliação) -->
<svg xmlns="http://www.w3.org/2000/svg" xml:space="preserve" width="187.626mm" height="187.626mm" version="1.1" style="shape-rendering:geometricPrecision; text-rendering:geometricPrecision; image-rendering:optimizeQuality; fill-rule:evenodd; clip-rule:evenodd"
viewBox="0 0 2365.5 2365.5"
 xmlns:xlink="http://www.w3.org/1999/xlink">
 <defs>
  <style type="text/css">
   <![CDATA[
    .fil1 {fill:none}
    .fil7 {fill:none;fill-rule:nonzero}
    .fil0 {fill:#0091B2}
    .fil3 {fill:url(#id0);fill-rule:nonzero}
    .fil2 {fill:url(#id1);fill-rule:nonzero}
    .fil8 {fill:url(#id2);fill-rule:nonzero}
    .fil6 {fill:url(#id3);fill-rule:nonzero}
    .fil5 {fill:url(#id4);fill-rule:nonzero}
    .fil4 {fill:url(#id5);fill-rule:nonzero}
   ]]>
  </style>
  <linearGradient id="id0" gradientUnits="userSpaceOnUse" x1="2059.01" y1="573.8" x2="2203.25" y2="395.71">
   <stop offset="0" style="stop-opacity:1; stop-color:#FEFEFE"/>
   <stop offset="1" style="stop-opacity:1; stop-color:#696B6D"/>
  </linearGradient>
  <linearGradient id="id1" gradientUnits="userSpaceOnUse" x1="1358.47" y1="1120.53" x2="1074.2" y2="1120.53">
   <stop offset="0" style="stop-opacity:1; stop-color:#FEFEFE"/>
   <stop offset="0.0784314" style="stop-opacity:1; stop-color:#FEFEFE"/>
   <stop offset="0.290196" style="stop-opacity:1; stop-color:#FEFEFE"/>
   <stop offset="1" style="stop-opacity:1; stop-color:#696B6D"/>
  </linearGradient>
  <linearGradient id="id2" gradientUnits="userSpaceOnUse" xlink:href="#id0" x1="2031.46" y1="1382.63" x2="2124.43" y2="1114.52">
  </linearGradient>
  <linearGradient id="id3" gradientUnits="userSpaceOnUse" xlink:href="#id0" x1="926.14" y1="1295" x2="1298.79" y2="1022.84">
  </linearGradient>
  <linearGradient id="id4" gradientUnits="userSpaceOnUse" xlink:href="#id0" x1="1588.03" y1="1652.79" x2="1293.05" y2="1888.76">
  </linearGradient>
  <linearGradient id="id5" gradientUnits="userSpaceOnUse" xlink:href="#id0" x1="318.19" y1="1398.32" x2="46.92" y2="1377.81">
  </linearGradient>
 </defs>
 <g id="Camada_x0020_1">
  <metadata id="CorelCorpID_0Corel-Layer"/>
  <rect class="fil0" x="-0" y="-0" width="2365.5" height="2365.51" rx="378.23" ry="250.45"/>
  <g id="_2738040082736">
   <g>
    <path class="fil1" d="M1363.06 1120.73c0,-173.21 -69.3,-329.63 -180.15,-440.61 -110.86,110.98 -180.16,267.41 -180.16,440.61 0,173.21 69.3,329.62 180.16,440.6 110.85,-110.98 180.15,-267.39 180.15,-440.6z"/>
   </g>
   <path class="fil2" d="M1312.29 582.17c-47.4,26.34 -90.89,59.4 -129.39,97.95 110.85,110.98 180.15,267.41 180.15,440.61 0,173.21 -69.3,329.62 -180.15,440.6 38.5,38.54 81.98,71.6 129.39,97.94 128.71,-139.47 208.18,-329.39 208.18,-538.54 0,-209.16 -79.47,-399.08 -208.18,-538.56z"/>
   <path class="fil3" d="M2145.9 1315.25c-4.95,0 -9.85,0.26 -14.77,0.39 -76.04,235.72 -285.88,406.99 -534.09,413.57 -4.93,0.13 -9.83,0.39 -14.79,0.39 -49.87,0 -98.29,-6.66 -144.5,-19.16 -44.08,-11.93 -86.07,-29.29 -125.46,-51.18 -47.4,-26.34 -90.89,-59.4 -129.39,-97.94 -110.86,-110.98 -180.16,-267.39 -180.16,-440.6 0,-173.21 69.3,-329.63 180.16,-440.61 38.5,-38.54 81.99,-71.61 129.39,-97.95 -38.9,-42.15 -82.3,-79.64 -129.39,-111.68 -47.09,32.04 -90.49,69.53 -129.39,111.68 -128.72,139.47 -208.19,329.4 -208.19,538.56 0,209.16 79.47,399.08 208.19,538.54 38.9,42.15 82.29,79.63 129.39,111.67 68.93,46.9 145.7,82.01 227.81,102.66 50.35,12.66 102.66,19.85 156.39,21 5.05,0.11 10.06,0.41 15.14,0.41 335.8,0 619.64,-237.3 708.15,-560.59 -46.21,-12.51 -94.63,-19.17 -144.5,-19.17l0.01 -0z"/>
   <path class="fil4" d="M204.77 1149.92c0.27,6.06 0.98,11.99 1.43,18 3.8,51.48 13.45,101.24 28.71,148.38 164.76,9.78 311.26,92.24 410.97,217.25 35.4,44.38 64.77,94.18 87.11,147.94 7.09,0.23 14.13,0.68 21.27,0.68 48.77,0 96.35,-5.22 142.61,-14.44 -100.65,-300.33 -372.56,-516.5 -692.1,-517.8l-0 0z"/>
   <path class="fil5" d="M2161.04 1150.25c-5.05,-0.11 -10.07,-0.41 -15.14,-0.41 -319.88,0 -592.47,215.4 -694.12,515.29 50.14,10.89 101.92,17.04 155.08,17.04 2.59,0 5.13,-0.22 7.72,-0.25 30.42,-73.39 74.32,-139.12 128.23,-194.12 101.07,-103.11 237.5,-168.16 388.31,-172.16 4.92,-0.13 9.82,-0.39 14.77,-0.39 49.87,0 98.29,6.66 144.5,19.17 14.34,-52.36 23.56,-106.94 27.03,-163.17 -50.35,-12.66 -102.66,-19.85 -156.39,-21l0 0z"/>
   <path class="fil6" d="M1053.51 1659.27c-44.38,24.66 -92.15,43.38 -142.38,55.29 -41.07,9.74 -83.73,15.05 -127.56,15.05 -11.1,0 -22.1,-0.41 -33.04,-1.05 -240,-14.26 -441.27,-182.66 -515.62,-412.25 -17.04,-52.64 -27.52,-108.43 -30.14,-166.38 -0.97,-0 -1.93,-0.08 -2.9,-0.08 -52.74,0 -104.16,5.97 -153.79,17.09 3.17,56.29 12.17,110.92 26.23,163.36 86.97,324.46 370.43,563.26 706.37,564.63 0.97,0 1.93,0.08 2.9,0.08 52.74,0 104.16,-5.97 153.79,-17.09 88.8,-19.89 171.66,-56.71 245.54,-106.97 -47.09,-32.04 -90.49,-69.53 -129.39,-111.67z"/>
   <g>
    <path class="fil7" d="M1363.06 1120.73c0,-173.21 -69.3,-329.63 -180.15,-440.61 -110.86,110.98 -180.16,267.41 -180.16,440.61 0,173.21 69.3,329.62 180.16,440.6 110.85,-110.98 180.15,-267.39 180.15,-440.6z"/>
   </g>
   <path class="fil8" d="M2290.4 1334.42c-5.62,-1.38 -11.25,-2.28 -16.87,-3.47 -48.17,-10.19 -96.37,-14.02 -143.69,-11.45 -53.9,163.88 -169.37,289.48 -311.04,356.18 -50.29,23.68 -103.9,39.79 -159.22,47.69 -2.14,7.1 -4.48,14.09 -6.42,21.32 -13.31,49.3 -21.51,98.83 -25.68,148.1 302.44,-19.82 574.55,-235.72 662.92,-558.38l0 0z"/>
  </g>
 </g>
</svg>
