<?xml version="1.0" encoding="iso-8859-1"?>
<!-- Generator: Adobe Illustrator 19.0.0, SVG Export Plug-In . SVG Version: 6.00 Build 0)  -->
<svg version="1.1" id="Layer_1" xmlns="http://www.w3.org/2000/svg" xmlns:xlink="http://www.w3.org/1999/xlink" x="0px" y="0px"
	 viewBox="0 0 512 512" style="enable-background:new 0 0 512 512;" xml:space="preserve">
<g>
	<polygon style="fill:#DB2B42;" points="363.32,471.112 404.208,512 460.952,457.056 419.16,415.264 419.16,415.264 419.16,415.264 
			"/>
	<path style="fill:#DB2B42;" d="M347.384,422.248l22.912-22.912l-22.672-22.672c-7.72,7.632-16.136,14.56-25.168,20.656
		L347.384,422.248z"/>
</g>
<g>
	<polygon style="fill:#2D2D2D;" points="330.92,438.712 363.32,471.112 363.32,471.112 419.16,415.264 419.16,415.264 
		386.76,382.872 370.296,399.336 347.384,422.248 	"/>
	<path style="fill:#2D2D2D;" d="M139.488,122.696c8.92-5.888,18.496-10.816,28.568-14.784v-19.56
		c-19.064,6.624-36.624,16.448-52.024,28.864h23.456L139.488,122.696L139.488,122.696z"/>
	<path style="fill:#2D2D2D;" d="M347.752,156.712h6.008v8.032c17.216,25.072,27.328,55.392,27.328,88.104
		c0,86.096-69.792,155.896-155.896,155.896c-86.096,0-155.896-69.792-155.896-155.896c0-32.712,10.112-63.032,27.328-88.104v-29.336
		c-28.304,30.968-45.576,72.184-45.576,117.448C51.048,349.032,129.016,427,225.192,427c36.024,0,69.488-10.936,97.256-29.672
		c9.032-6.088,17.448-13.024,25.168-20.656c31.92-31.568,51.712-75.376,51.712-123.816c0-76.152-48.904-140.848-117-164.496v19.56
		C308.288,118.152,330.792,135.112,347.752,156.712z"/>
	<path style="fill:#2D2D2D;" d="M225.2,96.96c4.824,0,9.576,0.296,14.288,0.72V79.336c-4.712-0.384-9.472-0.632-14.288-0.632
		s-9.568,0.248-14.288,0.632v18.336C215.624,97.248,220.376,96.96,225.2,96.96z"/>
</g>
<path style="fill:#FFFFFF;" d="M139.488,299.56H96.632V164.744c-17.216,25.072-27.328,55.392-27.328,88.104
	c0,86.096,69.792,155.896,155.896,155.896c86.096,0,155.896-69.792,155.896-155.896c0-32.712-10.112-63.032-27.328-88.104v135.232
	h-42.856V156.712h36.848c-16.96-21.592-39.464-38.56-65.416-48.8V299.56h-42.856V97.68c-4.712-0.432-9.464-0.72-14.288-0.72
	s-9.576,0.296-14.288,0.72v201.88h-42.856V107.912c-10.072,3.976-19.648,8.904-28.568,14.784V299.56z"/>
<polygon style="fill:#8AD5DD;" points="96.64,299.56 139.488,299.56 139.488,122.696 139.488,117.216 116.032,117.216 
	96.64,117.216 96.64,135.408 96.64,164.744 "/>
<polygon style="fill:#DB2B42;" points="168.064,0 168.064,88.352 168.064,107.912 168.064,299.56 210.912,299.56 210.912,97.68 
	210.912,79.336 210.912,0 "/>
<polygon style="fill:#8AD5DD;" points="239.488,299.56 282.336,299.56 282.336,107.912 282.336,88.352 282.336,60.44 239.488,60.44 
	239.488,79.336 239.488,97.68 "/>
<polygon style="fill:#DB2B42;" points="310.904,299.976 353.76,299.976 353.76,164.744 353.76,156.712 347.752,156.712 
	310.904,156.712 "/>
<g>
</g>
<g>
</g>
<g>
</g>
<g>
</g>
<g>
</g>
<g>
</g>
<g>
</g>
<g>
</g>
<g>
</g>
<g>
</g>
<g>
</g>
<g>
</g>
<g>
</g>
<g>
</g>
<g>
</g>
</svg>
