<?xml version="1.0" encoding="UTF-8"?>
<!DOCTYPE svg PUBLIC "-//W3C//DTD SVG 1.1//EN" "http://www.w3.org/Graphics/SVG/1.1/DTD/svg11.dtd">
<!-- Creator: CorelDRAW 2018 (64 Bit Versão de avaliação) -->
<svg xmlns="http://www.w3.org/2000/svg" xml:space="preserve" width="5mm" height="5mm" version="1.1" style="shape-rendering:geometricPrecision; text-rendering:geometricPrecision; image-rendering:optimizeQuality; fill-rule:evenodd; clip-rule:evenodd"
viewBox="0 0 40901.37 47928.08"
 xmlns:xlink="http://www.w3.org/1999/xlink">
 <defs>
  <style type="text/css">
   <![CDATA[
    .str0 {stroke:#FEFEFE;stroke-width:895.85;stroke-miterlimit:22.9256}
    .fil0 {fill:#FEFEFE}
   ]]>
  </style>
 </defs>
 <g id="Camada_x0020_1">
  <metadata id="CorelCorpID_0Corel-Layer"/>
  <path class="fil0 str0" d="M20280.25 25790.21c48.67,0 97.4,0 155.83,0 19.48,0 38.95,0 58.43,0 29.23,0 68.17,0 97.4,0 2853.69,-48.67 5161.93,-1051.87 6866.33,-2970.54 3749.73,-4226.95 3126.39,-11473.19 3058.22,-12164.67 -243.49,-5191.18 -2697.86,-7674.77 -4723.67,-8833.78 -1509.65,-866.85 -3272.51,-1334.35 -5239.84,-1373.3l-68.17 0c-9.74,0 -29.23,0 -38.95,0l-58.45 0c-1081.09,0 -3204.31,175.32 -5239.86,1334.33 -2045.3,1159.01 -4538.64,3642.58 -4782.11,8872.73 -68.17,691.51 -691.51,7937.73 3058.22,12164.67 1694.66,1918.65 4002.94,2921.82 6856.63,2970.54l0 0.02zm-7314.44 -14891.76c0,-29.23 9.74,-58.43 9.74,-77.92 321.41,-6983.26 5278.83,-7733.2 7402.05,-7733.2l38.95 0c19.48,0 48.67,0 77.92,0 2629.66,58.43 7100.1,1129.78 7402.01,7733.2 0,29.23 0,58.43 9.74,77.92 9.74,68.17 691.51,6691.08 -2405.68,10177.83 -1227.18,1383 -2863.44,2064.76 -5015.81,2084.25 -19.48,0 -29.23,0 -48.67,0l0 0c-19.48,0 -29.23,0 -48.67,0 -2142.7,-19.48 -3788.67,-701.27 -5006.16,-2084.25 -3087.44,-3467.26 -2425.14,-10119.37 -2415.42,-10177.83z"/>
  <path class="fil0 str0" d="M40450.8 37808.79c0,-9.74 0,-19.48 0,-29.23 0,-77.92 -9.74,-155.83 -9.74,-243.49 -58.43,-1928.43 -185.06,-6437.84 -4412.01,-7879.29 -29.23,-9.74 -68.17,-19.48 -97.4,-29.23 -4392.55,-1120.06 -8044.87,-3652.32 -8083.84,-3681.57 -594.11,-418.81 -1412.24,-272.7 -1831.03,321.41 -418.81,594.11 -272.7,1412.24 321.41,1831.03 165.58,116.86 4041.91,2814.72 8892.21,4061.39 2269.31,808.37 2522.56,3233.54 2590.72,5454.15 0,87.66 0,165.58 9.74,243.49 9.74,876.57 -48.67,2230.36 -204.52,3009.53 -1577.8,896.03 -7762.43,3993.22 -17170.76,3993.22 -9369.43,0 -15593.01,-3106.93 -17180.55,-4002.96 -155.83,-779.17 -224.01,-2132.96 -204.52,-3009.53 0,-77.92 9.74,-155.83 9.74,-243.49 68.17,-2220.62 321.41,-4645.76 2590.72,-5454.15 4850.3,-1246.67 8726.64,-3954.25 8892.21,-4061.39 594.11,-418.81 740.2,-1236.93 321.41,-1831.03 -418.81,-594.11 -1236.93,-740.2 -1831.03,-321.41 -38.95,29.23 -3671.81,2561.51 -8083.84,3681.57 -38.95,9.74 -68.17,19.48 -97.4,29.23 -4226.97,1451.21 -4353.6,5960.6 -4412.01,7879.29 0,87.66 0,165.58 -9.74,243.49 0,9.74 0,19.48 0,29.23 -9.74,506.45 -19.48,3106.93 496.73,4412.01 97.4,253.24 272.7,467.5 506.45,613.59 292.16,194.78 7294.93,4655.5 19011.58,4655.5 11716.61,0 18719.36,-4470.46 19011.54,-4655.5 224.01,-146.09 409.07,-360.36 506.45,-613.59 486.94,-1295.31 477.2,-3895.79 467.46,-4402.27l0.04 0z"/>
 </g>
</svg>
