<?xml version="1.0" encoding="iso-8859-1"?>
<!-- Generator: Adobe Illustrator 19.0.0, SVG Export Plug-In . SVG Version: 6.00 Build 0)  -->
<svg version="1.1" id="Layer_1" xmlns="http://www.w3.org/2000/svg" xmlns:xlink="http://www.w3.org/1999/xlink" x="0px" y="0px"
	 viewBox="0 0 512 512" style="enable-background:new 0 0 512 512;" xml:space="preserve">
<path style="fill:#DB2B42;" d="M71.184,501.284l118.76-98.776H512V55.876H198.112c0,24.944-20.216,45.16-45.16,45.16
	s-45.16-20.216-45.16-45.16H0v346.632h71.184V501.284z M450.592,293.164c0,42.104,0,51.872,0,51.872s-89.712,0-89.4,0l43.632-94.592
	C404.824,250.444,450.592,251.052,450.592,293.164z M359.048,320.012l-31.432-69.568h31.432h31.432L359.048,320.012z
	 M359.048,149.748c24.944,0,45.16,20.216,45.16,45.16s-20.216,45.16-45.16,45.16s-45.16-20.216-45.16-45.16
	S334.112,149.748,359.048,149.748z M267.512,293.164c0-42.112,45.768-42.72,45.768-42.72l43.632,94.592c0.304,0-89.4,0-89.4,0
	S267.512,335.268,267.512,293.164z M198.72,111.412c0,0,45.768,0.608,45.768,42.72c0,42.104,0,51.872,0,51.872s-89.712,0-89.4,0
	L198.72,111.412z M152.952,111.412h31.432l-31.432,69.568l-31.432-69.568C121.52,111.412,152.952,111.412,152.952,111.412z
	 M61.408,206.004c0,0,0-9.768,0-51.872c0-42.112,45.768-42.72,45.768-42.72l43.632,94.592
	C151.12,206.004,61.408,206.004,61.408,206.004z"/>
<g>
	<circle style="fill:#2D2D2D;" cx="152.96" cy="55.876" r="45.16"/>
	<path style="fill:#2D2D2D;" d="M107.176,111.412c0,0-45.768,0.608-45.768,42.72c0,42.104,0,51.872,0,51.872s89.712,0,89.4,0
		L107.176,111.412z"/>
	<path style="fill:#2D2D2D;" d="M244.488,206.004c0,0,0-9.768,0-51.872c0-42.112-45.768-42.72-45.768-42.72l-43.632,94.592
		C154.776,206.004,244.488,206.004,244.488,206.004z"/>
</g>
<g>
	<polygon style="fill:#FFFFFF;" points="184.376,111.412 152.952,111.412 121.52,111.412 152.952,180.98 	"/>
	<circle style="fill:#FFFFFF;" cx="359.048" cy="194.876" r="45.16"/>
	<path style="fill:#FFFFFF;" d="M313.28,250.444c0,0-45.768,0.608-45.768,42.72c0,42.104,0,51.872,0,51.872s89.712,0,89.4,0
		L313.28,250.444z"/>
	<path style="fill:#FFFFFF;" d="M450.592,345.036c0,0,0-9.768,0-51.872c0-42.112-45.768-42.72-45.768-42.72l-43.64,94.592
		C360.88,345.036,450.592,345.036,450.592,345.036z"/>
</g>
<polygon style="fill:#8AD5DD;" points="359.048,250.444 327.624,250.444 359.048,320.012 390.48,250.444 "/>
<g>
</g>
<g>
</g>
<g>
</g>
<g>
</g>
<g>
</g>
<g>
</g>
<g>
</g>
<g>
</g>
<g>
</g>
<g>
</g>
<g>
</g>
<g>
</g>
<g>
</g>
<g>
</g>
<g>
</g>
</svg>
