<?xml version="1.0" encoding="UTF-8"?>
<!DOCTYPE svg PUBLIC "-//W3C//DTD SVG 1.1//EN" "http://www.w3.org/Graphics/SVG/1.1/DTD/svg11.dtd">
<!-- Creator: CorelDRAW 2018 (64 Bit Versão de avaliação) -->
<svg xmlns="http://www.w3.org/2000/svg" xml:space="preserve" width="5mm" height="5mm" version="1.1" style="shape-rendering:geometricPrecision; text-rendering:geometricPrecision; image-rendering:optimizeQuality; fill-rule:evenodd; clip-rule:evenodd"
viewBox="0 0 3728.88 5360.34"
 xmlns:xlink="http://www.w3.org/1999/xlink">
 <defs>
  <style type="text/css">
   <![CDATA[
    .fil0 {fill:#FEFEFE}
   ]]>
  </style>
 </defs>
 <g id="Camada_x0020_1">
  <metadata id="CorelCorpID_0Corel-Layer"/>
  <path class="fil0" d="M3262.82 2097.42l0 -699.06c0,-772.37 -626.14,-1398.36 -1398.37,-1398.36 -772.35,0 -1398.35,625.99 -1398.35,1398.36l0 699.06c-257.39,0 -466.09,208.7 -466.09,466.09l0 2330.7c0,257.45 208.7,466.12 466.09,466.12l2796.72 0.01c257.4,0 466.06,-208.69 466.06,-466.12l0 -2330.71c0.02,-257.39 -208.66,-466.09 -466.06,-466.09zm-2330.6 -699.06c0,-514.93 417.41,-932.23 932.23,-932.23 514.86,0 932.26,417.29 932.26,932.23l0 699.06 -1864.49 0 0 -699.06zm2330.6 3495.85l-2796.72 0 0 -2330.57 2796.72 0 0 2330.57zm-1631.43 -996.86l0 297.68c0,128.61 104.42,233.06 233.06,233.06 128.61,0 233.06,-104.46 233.06,-233.06l0 -297.68c138.6,-80.77 233.06,-229.43 233.06,-401.46 0,-257.51 -208.73,-466.24 -466.12,-466.24 -257.39,0 -466.09,208.73 -466.09,466.24 0,172.04 94.38,320.7 233.03,401.46z"/>
 </g>
</svg>
