<?xml version="1.0" encoding="UTF-8"?>
<!DOCTYPE svg PUBLIC "-//W3C//DTD SVG 1.1//EN" "http://www.w3.org/Graphics/SVG/1.1/DTD/svg11.dtd">
<!-- Creator: CorelDRAW 2018 (64 Bit Versão de avaliação) -->
<svg xmlns="http://www.w3.org/2000/svg" xml:space="preserve" width="173.482mm" height="77.216mm" version="1.1" style="shape-rendering:geometricPrecision; text-rendering:geometricPrecision; image-rendering:optimizeQuality; fill-rule:evenodd; clip-rule:evenodd"
viewBox="0 0 19631.28 8737.8"
 xmlns:xlink="http://www.w3.org/1999/xlink">
 <defs>
  <style type="text/css">
   <![CDATA[
    .fil6 {fill:none}
    .fil1 {fill:url(#id1)}
    .fil4 {fill:url(#id2)}
    .fil3 {fill:url(#id3)}
    .fil0 {fill:url(#id4)}
    .fil2 {fill:url(#id5)}
    .fil5 {fill:url(#id6)}
   ]]>
  </style>
   <clipPath id="id0">
    <path d="M19631.29 8737.79l0 -8722.72 -9791.44 -15.07 -9831.22 0 -8.65 8707.54 19631.31 30.25z"/>
   </clipPath>
  <linearGradient id="id1" gradientUnits="userSpaceOnUse" x1="-566.93" y1="3938.97" x2="1015" y2="3994.49">
   <stop offset="0" style="stop-opacity:1; stop-color:#284C74"/>
   <stop offset="1" style="stop-opacity:1; stop-color:#0091B2"/>
  </linearGradient>
  <linearGradient id="id2" gradientUnits="userSpaceOnUse" xlink:href="#id1" x1="-368.98" y1="11563.47" x2="3886.55" y2="6697.36">
  </linearGradient>
  <linearGradient id="id3" gradientUnits="userSpaceOnUse" xlink:href="#id1" x1="-7307.38" y1="4961.78" x2="-4795.68" y2="5655.61">
  </linearGradient>
  <linearGradient id="id4" gradientUnits="userSpaceOnUse" xlink:href="#id1" x1="-1890.23" y1="15937.88" x2="11428.31" y2="2788.84">
  </linearGradient>
  <linearGradient id="id5" gradientUnits="userSpaceOnUse" xlink:href="#id1" x1="4513.16" y1="2148.84" x2="3347.5" y2="3258.98">
  </linearGradient>
  <linearGradient id="id6" gradientUnits="userSpaceOnUse" xlink:href="#id1" x1="-1203.93" y1="4699.27" x2="-3105.04" y2="5809.41">
  </linearGradient>
 </defs>
 <g id="Camada_x0020_1">
  <metadata id="CorelCorpID_0Corel-Layer"/>
  <polygon class="fil0" points="19631.29,8737.79 19631.29,15.07 9839.86,0 8.63,0 -0.01,8707.54 "/>
  <g style="clip-path:url(#id0)">
   <g id="_1994650855808">
    <g>
     <path id="1" class="fil1" d="M7.59 1285.88c714.47,680.77 1161.09,1640.23 1161.09,2702.6l0 0c0,1062.36 -446.62,2021.77 -1161.09,2702.53l0 0c248.12,236.45 528.4,439.18 833.86,600.71l0 0c829.58,-855.46 1341.72,-2020.32 1341.72,-3303.24 0,-1282.99 -512.14,-2447.91 -1341.65,-3303.41 -305.52,161.57 -585.81,364.37 -833.92,600.81l0 0z"/>
     <path class="fil2" d="M-826.32 685.06c-829.58,855.45 -1341.78,2020.42 -1341.78,3303.41l0 0c0,1282.92 512.2,2447.85 1341.78,3303.3l0 0c250.66,258.57 530.37,488.46 833.91,685.05l0 0c444.18,287.59 939.04,503.03 1468.25,629.68l0 0c324.44,77.72 661.59,121.72 1007.92,128.79l0 0c32.57,0.63 64.84,2.5 97.51,2.5l0 0c2164.26,0 3993.63,-1455.54 4564.04,-3438.6l0 0c-297.8,-76.73 -609.82,-117.6 -931.25,-117.6l0 0c-31.91,0 -63.55,1.63 -95.24,2.43l0 0c-490.09,1445.85 -1842.49,2496.38 -3442.19,2536.77l0 0c-31.74,0.8 -63.38,2.43 -95.36,2.43l0 0c-321.36,0 -633.38,-40.85 -931.21,-117.59l0 0c-284.09,-73.2 -554.74,-179.7 -808.61,-313.94l0 0c-305.45,-161.54 -585.74,-364.26 -833.86,-600.71l0 0c-714.54,-680.76 -1161.15,-1640.17 -1161.15,-2702.53l0 0c0,-1062.37 446.61,-2021.83 1161.15,-2702.6l0 0c248.12,-236.45 528.4,-439.24 833.86,-600.81l0 0c-250.67,-258.58 -530.36,-488.54 -833.86,-685.06 -303.54,196.53 -583.25,426.48 -833.91,685.06l0 0z"/>
     <path class="fil3" d="M-2759.38 7432.23l2.16 0 2.15 0c314.36,0 621.04,-31.98 919.2,-88.56l0 0c-648.73,-1842.15 -2401.2,-3168.09 -4460.58,-3176.14 1.74,37.2 6.38,73.54 9.18,110.44l0 0c24.54,315.73 86.7,621.04 185.09,910.13l0 0c1061.78,60.02 2006,565.78 2648.67,1332.56l0 0c228.17,272.21 417.55,577.73 561.42,907.45l0 0c44.23,1.36 88.19,3.97 132.71,4.13z"/>
     <path class="fil4" d="M2740.02 7432.23l2.35 0c15.89,-0.11 31.44,-1.28 47.31,-1.45l0 0c196.06,-450.22 479.01,-853.37 826.5,-1190.75l0 0c651.39,-632.52 1530.64,-1031.49 2502.63,-1055.99l0 0c31.68,-0.8 63.32,-2.43 95.24,-2.43l0 0c321.43,0 633.45,40.86 931.25,117.6l0 0c92.42,-321.15 151.91,-655.92 174.26,-1000.85l0 0c-324.44,-77.67 -661.6,-121.78 -1007.94,-128.8l0 0c-32.56,-0.63 -64.82,-2.49 -97.57,-2.49l0 0c-2061.52,0 -3818.41,1321.23 -4473.62,3160.7 323.18,66.8 656.91,104.47 999.58,104.47z"/>
     <path class="fil5" d="M-7306.42 4271.82c20.5,345.35 78.49,680.4 169.08,1002.06l0 0c560.5,1990.21 2387.37,3454.97 4552.57,3463.46l0 0c6.2,0 12.36,0.46 18.61,0.46l0 0c339.95,0 671.29,-36.69 991.21,-104.82l0 0c572.34,-122.05 1106.37,-347.9 1582.54,-656.15l0 0c-303.54,-196.59 -583.25,-426.48 -833.91,-685.05l0 0c-286.09,151.25 -593.87,266.12 -917.62,339.12l0 0c-264.78,59.78 -539.61,92.35 -822.21,92.35l0 0c-71.49,0 -142.42,-2.5 -212.93,-6.51l0 0c-1546.79,-87.41 -2843.97,-1120.4 -3323.1,-2528.64l0 0c-109.87,-322.88 -177.44,-665.07 -194.26,-1020.57l0 0c-6.27,0 -12.47,-0.46 -18.69,-0.46l0 0c-339.93,0 -671.34,36.62 -991.27,104.75z"/>
    </g>
   </g>
  </g>
  <polygon class="fil6" points="19631.29,8737.79 19631.29,15.07 9839.86,0 8.63,0 -0.01,8707.54 "/>
 </g>
</svg>
