<?xml version="1.0" encoding="UTF-8"?>
<!DOCTYPE svg PUBLIC "-//W3C//DTD SVG 1.1//EN" "http://www.w3.org/Graphics/SVG/1.1/DTD/svg11.dtd">
<!-- Creator: CorelDRAW 2018 (64 Bit Versão de avaliação) -->
<svg xmlns="http://www.w3.org/2000/svg" xml:space="preserve" width="45,645mm" height="50mm" version="1.1" style="shape-rendering:geometricPrecision; text-rendering:geometricPrecision; image-rendering:optimizeQuality; fill-rule:evenodd; clip-rule:evenodd"
viewBox="0 0 7112.57 7791.17"
 xmlns:xlink="http://www.w3.org/1999/xlink">
 <defs>
  <style type="text/css">
   <![CDATA[
    .fil0 {fill:#FEFEFE}
   ]]>
  </style>
 </defs>
 <g id="Layer_x0020_1">
  <metadata id="CorelCorpID_0Corel-Layer"/>
  <g id="_2983350318992">
   <path class="fil0" d="M4854.83 7791.17c-1501.05,-2469.31 -6549.42,-1000.5 -4275.02,-6170.71 280.37,-637.52 389.86,-916.96 429.15,-897.85 39.62,19.18 8.43,340.56 8.89,903.35 4.05,4338.72 3608.63,1483.93 3836.98,6165.2z"/>
   <path class="fil0" d="M5119.47 6441.28c1690.58,-663.46 3007.68,-1482.8 921.87,-5405.78 294.84,3015.31 -680.32,3476.11 -1715.73,3936.52 341.88,308.64 627.63,753.91 793.86,1469.27z"/>
   <path class="fil0" d="M3799.98 4385.59c572.28,-643.82 691.73,-1663.97 -162.38,-3567.16 -291.32,-649.39 -389.93,-874.49 -416.54,-806.93 -26.08,66.03 16.59,412.23 14.86,914.97 -5.57,1573.52 -488.47,2194.11 -1110.26,2575.28 523.24,329.28 1149.88,479.25 1674.32,883.84z"/>
  </g>
 </g>
</svg>
